<svg xmlns="http://www.w3.org/2000/svg" viewBox="0 0 256 256">
  <defs>
    <linearGradient id="g" x1="0" y1="0" x2="1" y2="1">
      <stop offset="0" stop-color="#ffb000"/>
      <stop offset="1" stop-color="#ff5a00"/>
    </linearGradient>
  </defs>
  <rect x="18" y="18" width="220" height="220" rx="46" fill="url(#g)"/>
  <path d="M183 62c-28-23-69-25-100-4-23 16-37 42-37 70h26c0-20 10-38 27-49 21-15 50-13 69 3l-25 1 43 38 36-44-39 5z" fill="#fff"/>
  <path d="M73 194c28 23 69 25 100 4 23-16 37-42 37-70h-26c0 20-10 38-27 49-21 15-50 13-69-3l25-1-43-38-36 44 39-5z" fill="#fff"/>
  <text x="128" y="152" font-family="Arial, Helvetica, sans-serif" font-size="74" font-weight="800" text-anchor="middle" fill="#fff">1C</text>
</svg>
